# xmcd CD database file
#
# Track frame offsets:
#	150
#	26885
#	70430
#	94352
#	136580
#	154530
#	173865
#	193227
#
# Disc length: 2767 seconds
#
# Revision: 0
# Processed by: cddbd v1.5.2PL0 Copyright (c) Steve Scherf et al.
# Submitted via: CDex 1.51
#
DISCID=6d0acd08
DTITLE=Roberto Tarenzi - Lucio Terzano - Tony Arco - Introducing Cues Trio
DYEAR=2002
DGENRE=Jazz
TTITLE0=Old Devil Moon
TTITLE1=Bogota
TTITLE2=Inno
TTITLE3=Sorry Ass
TTITLE4=Lament
TTITLE5=I'll Be Seeing You
TTITLE6=Manhattan Reflections
TTITLE7=Rondò
EXTD=YEAR: 2002
EXTT0=
EXTT1=
EXTT2=
EXTT3=
EXTT4=
EXTT5=
EXTT6=
EXTT7=
PLAYORDER=
